# xmcd
#
# Track frame offsets: 
#        150
#        14545
#        26352
#        52831
#        70356
#        90495
#        101710
#        123617
#        135724
#        145726
#        164475
#
# Disc length: 2427 seconds
#
# Revision: 0
# Processed by: cddbd v1.5.1PL2 Copyright (c) Steve Scherf et al.
# Submitted via: ExactAudioCopy v0.95a4
#
DISCID=9409790b
DTITLE=Владимир Высоцкий - #18 - Антиалкогольная
DYEAR=2000
DGENRE=
TTITLE0=Чужая колея
TTITLE1=Песня автозавистника
TTITLE2=Баллада о детстве
TTITLE3=Антиалкогольная
TTITLE4=Купола
TTITLE5=Иноходец (Скачки)
TTITLE6=Бермудский треугольник
TTITLE7=Кругом пятьсот
TTITLE8="За меня невеста отрыдает честно..."
TTITLE9=Все не так, ребята
TTITLE10=Охота на волков
EXTD=
EXTT0=
EXTT1=
EXTT2=
EXTT3=
EXTT4=
EXTT5=
EXTT6=
EXTT7=
EXTT8=
EXTT9=
EXTT10=
PLAYORDER=
